IKResults
version=1
nRows=7
nColumns=40
inDegrees=yes

Units are S.I. units (second, meters, Newtons, ...)
Angles are in degrees.

endheader
time	pelvis_tilt	pelvis_list	pelvis_rotation	pelvis_tx	pelvis_ty	pelvis_tz	hip_flexion_r	hip_adduction_r	hip_rotation_r	knee_angle_r	knee_angle_r_beta	ankle_angle_r	subtalar_angle_r	mtp_angle_r	hip_flexion_l	hip_adduction_l	hip_rotation_l	knee_angle_l	knee_angle_l_beta	ankle_angle_l	subtalar_angle_l	mtp_angle_l	lumbar_extension	lumbar_bending	lumbar_rotation	arm_flex_r	arm_add_r	arm_rot_r	elbow_flex_r	pro_sup_r	wrist_flex_r	wrist_dev_r	arm_flex_l	arm_add_l	arm_rot_l	elbow_flex_l	pro_sup_l	wrist_flex_l	wrist_dev_l
      0.00000000	     16.62329516	      2.98711690	     -2.00217021	     -0.89544826	      0.93000420	     -1.00265419	    -26.07005616	     -2.02785153	     -4.01376318	    -17.46634377	     -0.30484521	     15.81784653	     -9.79910605	     -2.62563585	      5.39993917	     -1.01293083	     15.89524568	    -14.90399698	     -0.26012382	      6.14707100	     -3.63387626	     -6.55791789	    -24.31694661	     -5.90154935	      4.31641646	      3.06064282	    -11.63442069	      1.24145991	     28.90988179	     89.95437384	      0.00000000	      0.00000000	     -6.51507825	      9.30596952	     14.37794012	     16.69435890	     89.95437384	      0.00000000	      0.00000000
      0.01000000	     16.63790081	      2.98649018	     -2.24313979	     -0.88733515	      0.92845795	     -1.00336433	    -26.51845821	     -2.20107338	     -3.77725917	    -17.70837172	     -0.30906939	     15.97446654	     -9.79995601	     -2.65882231	      4.98172153	     -1.01877192	     15.15731421	    -14.92770323	     -0.26053757	      6.40962715	     -3.86322733	     -6.75154316	    -24.11263850	     -6.06930441	      4.64120082	      2.82101452	    -11.60253002	      1.33808707	     28.76555174	     89.95437384	      0.00000000	      0.00000000	     -6.65147875	      9.20371747	     14.56161099	     16.07886133	     89.95437384	      0.00000000	      0.00000000
      0.02000000	     16.54348838	      2.86539134	     -2.50598525	     -0.87914929	      0.92679590	     -1.00417595	    -26.77676603	     -2.29184359	     -3.56489516	    -18.06970569	     -0.31537586	     16.13602200	     -9.77589903	     -2.69027768	      4.66000114	     -0.88162759	     14.66015887	    -15.08623223	     -0.26330442	      6.56180194	     -3.80112525	     -6.81274592	    -23.78328088	     -6.10089609	      5.03006179	      2.56313234	    -11.60159084	      1.38634976	     28.63703139	     89.95437384	      0.00000000	      0.00000000	     -6.97609858	      9.12999189	     14.65426450	     16.09039328	     89.95437384	      0.00000000	      0.00000000
      0.03000000	     16.47078132	      2.80637857	     -2.77203708	     -0.87084176	      0.92523723	     -1.00512881	    -27.05676925	     -2.46985495	     -3.41235606	    -18.43975562	     -0.32183445	     16.19294430	     -9.78335798	     -2.69679586	      4.47609325	     -0.79487085	     14.94447940	    -15.63190898	     -0.27282828	      6.06741167	     -2.93532085	     -6.74771868	    -23.50139463	     -6.15113108	      5.33671272	      2.30392132	    -11.62456692	      1.45272422	     28.54695312	     89.95437384	      0.00000000	      0.00000000	     -7.24351456	      9.00852252	     14.89447742	     16.01355660	     89.95437384	      0.00000000	      0.00000000
      0.04000000	     16.52650231	      3.02193805	     -3.38330616	     -0.86257820	      0.92425250	     -1.00613033	    -27.38985853	     -3.07499228	     -2.69032057	    -18.90026435	     -0.32987184	     16.11870812	     -9.98949124	     -2.75454076	      4.19850173	     -0.99286189	     16.44004938	    -16.04587776	     -0.28005340	      4.72842313	     -1.35082500	     -6.86379459	    -23.34686250	     -6.59681399	      5.79825394	      2.08128186	    -11.66116811	      1.61547731	     28.45381858	     89.95437384	      0.00000000	      0.00000000	     -7.42777124	      8.79426823	     15.75339753	     16.02471879	     89.95437384	      0.00000000	      0.00000000
      0.05000000	     16.27401909	      3.06307535	     -3.26897666	     -0.85457301	      0.92305750	     -1.00780259	    -27.41266177	     -3.18723742	     -2.61700427	    -19.41033283	     -0.33877422	     15.83347877	     -9.76092238	     -2.71734767	      4.34309555	     -1.04946585	     16.32702874	    -16.42503472	     -0.28667094	      4.48115020	     -1.21689853	     -6.74302766	    -22.97209215	     -6.63406044	      5.76071701	      1.73231560	    -11.65057443	      1.62139411	     28.49911823	     89.95437384	      0.00000000	      0.00000000	     -7.69603541	      8.71198718	     15.71945568	     16.18744273	     89.95437384	      0.00000000	      0.00000000
      0.06000000	     16.41341771	      3.74244018	     -3.81381371	     -0.84654223	      0.92308251	     -1.00921424	    -27.70019249	     -4.26801470	     -2.27814690	    -20.05060707	     -0.34994911	     15.59259486	    -10.19181439	     -2.67672016	      4.04060962	     -1.68175387	     18.04574642	    -16.80798783	     -0.29335473	      2.92991369	     -0.45109774	     -6.75342212	    -22.94402829	     -7.50560789	      5.94556699	      1.87170684	    -11.45491965	      1.49556936	     27.69156729	     89.95437384	      0.00000000	      0.00000000	     -7.71985751	      8.64444213	     16.06262011	     16.21784934	     89.95437384	      0.00000000	      0.00000000
